# xmcd
#
# Track frame offsets:
#	150
#	15460
#	34095
#	55377
#	72802
#	88870
#	107395
#	122722
#	141910
#	161957
#	177512
#	196600
#	213420
#	228802
#	246302
#	261942
#	277167
#	298320
#	318144
#	332360
#
# Disc length: 4675 seconds
#
# Revision: 1
# Processed by: cddbd v1.5.2PL0 Copyright (c) Steve Scherf et al.
# Submitted via: audiograbber 1.83.01
#
DISCID=28124114
DTITLE=Hausmylly - Hausmylly 20 Hitti‰
DYEAR=2003
DGENRE=Pop
TTITLE0=Tavallinen Tarina
TTITLE1=Kaipaan
TTITLE2=Et J‰tt‰‰ Saa
TTITLE3=Se Musta Mies (Remix 1994)
TTITLE4=Ei Rakkaus P‰‰st‰ Mua Otteestaan (Album Version)
TTITLE5=Jos
TTITLE6=Kai Sinut Saan
TTITLE7=Kaikki Loppuu
TTITLE8=Rakkauden Lukko
TTITLE9=Jos Viel‰ Muistat
TTITLE10=Gigolo
TTITLE11=Tuu Mun Luo
TTITLE12=En Voi Sua Unohtaa
TTITLE13=S‰ Oot Jees
TTITLE14=Rakkaustta Vain
TTITLE15=Mennytt‰ Aikaa
TTITLE16=Avaa Syd‰mmesi Mulle
TTITLE17=Ei Paljon Purista
TTITLE18=P‰‰si Rinnallein Painuu
TTITLE19=Muistot
EXTD=TR.
EXTT0=
EXTT1=
EXTT2=
EXTT3=
EXTT4=
EXTT5=
EXTT6=
EXTT7=
EXTT8=
EXTT9=
EXTT10=
EXTT11=
EXTT12=
EXTT13=
EXTT14=
EXTT15=
EXTT16=
EXTT17=
EXTT18=
EXTT19=
PLAYORDER=
